HIERARCHY
ROOT Hips
{
	OFFSET 0.000000 0.000000 0.000000 
	CHANNELS 6 Xposition Yposition Zposition Zrotation Yrotation Xrotation
	JOINT LeftUpLeg
	{
		OFFSET 1.363060 -1.794630 0.839290 
		CHANNELS 3 Zrotation Yrotation Xrotation
		JOINT LeftLeg
		{
			OFFSET 2.448110 -6.726130 0.000000 
			CHANNELS 3 Zrotation Yrotation Xrotation
			JOINT LeftFoot
			{
				OFFSET 2.562200 -7.039590 0.000000 
				CHANNELS 3 Zrotation Yrotation Xrotation
				JOINT LeftToeBase
				{
					OFFSET 0.157640 -0.433110 2.322550 
					CHANNELS 3 Zrotation Yrotation Xrotation
					End Site
					{
						OFFSET 0.000000 0.000000 0.000000 
					}
				}
			}
		}
	}
	JOINT RightUpLeg
	{
		OFFSET -1.305520 -1.794630 0.839290 
		CHANNELS 3 Zrotation Yrotation Xrotation
		JOINT RightLeg
		{
			OFFSET -2.542530 -6.985550 0.000000 
			CHANNELS 3 Zrotation Yrotation Xrotation
			JOINT RightFoot
			{
				OFFSET -2.568260 -7.056230 0.000000 
				CHANNELS 3 Zrotation Yrotation Xrotation
				JOINT RightToeBase
				{
					OFFSET -0.164730 -0.452590 2.363150 
					CHANNELS 3 Zrotation Yrotation Xrotation
					End Site
					{
						OFFSET 0.000000 0.000000 0.000000 
					}
				}
			}
		}
	}
	JOINT Spine
	{
		OFFSET 0.028270 2.035590 -0.193380 
		CHANNELS 3 Zrotation Yrotation Xrotation
		JOINT Spine1
		{
			OFFSET 0.056720 2.048850 -0.042750 
			CHANNELS 3 Zrotation Yrotation Xrotation
			JOINT Neck1
			{
				OFFSET -0.054170 1.746240 0.172020 
				CHANNELS 3 Zrotation Yrotation Xrotation
				JOINT Head
				{
					OFFSET 0.104070 1.761360 -0.123970 
					CHANNELS 3 Zrotation Yrotation Xrotation
					End Site
					{
						OFFSET 0.000000 0.000000 0.000000 
					}
				}
			}
			JOINT LeftArm
			{
				OFFSET 3.362410 1.200890 -0.311210 
				CHANNELS 3 Zrotation Yrotation Xrotation
				JOINT LeftForeArm
				{
					OFFSET 4.983000 -0.000000 -0.000000 
					CHANNELS 3 Zrotation Yrotation Xrotation
					JOINT LeftHand
					{
						OFFSET 3.483560 -0.000000 -0.000000 
						CHANNELS 3 Zrotation Yrotation Xrotation
						JOINT LeftHandIndex1
						{
							OFFSET 0.715260 -0.000000 -0.000000 
							CHANNELS 3 Zrotation Yrotation Xrotation
							End Site
							{
								OFFSET 0.000000 0.000000 0.000000 
							}
						}
					}
				}
			}
			JOINT RightArm
			{
				OFFSET -3.136600 1.374050 -0.404650 
				CHANNELS 3 Zrotation Yrotation Xrotation
				JOINT RightForeArm
				{
					OFFSET -5.241900 -0.000000 -0.000000 
					CHANNELS 3 Zrotation Yrotation Xrotation
					JOINT RightHand
					{
						OFFSET -3.444170 -0.000000 -0.000000 
						CHANNELS 3 Zrotation Yrotation Xrotation
						JOINT RightHandIndex1
						{
							OFFSET -0.622530 -0.000000 -0.000000 
							CHANNELS 3 Zrotation Yrotation Xrotation
							End Site
							{
								OFFSET 0.000000 0.000000 0.000000 
							}
						}
					}
				}
			}
		}
	}
}
MOTION
Frames: 12
Frame Time: 0.041667
16.929780 17.329346 -14.663589 1.543304 -5.563105 6.756444 -16.630539 1.530328 -24.183193 4.207009 14.869409 42.873571 3.307103 -3.505987 -23.146766 3.348600 -11.239000 -33.090400 21.220460 15.365196 -17.824552 -4.035548 -14.802008 43.359804 -0.377139 -17.105305 -37.571252 -2.787000 10.342000 -30.091600 1.328535 -0.579769 -4.397860 3.178187 -0.442927 6.277852 4.220416 -11.488709 23.041399 -0.008800 -4.967400 14.809100 -86.087074 1.873256 43.673673 26.661754 -30.948287 -9.098037 -1.295279 -0.546124 -19.556667 -7.125000 0.000000 0.000000 79.089338 -1.248487 20.826586 -18.057072 24.146333 -5.324917 2.146792 0.373396 5.005505 7.125000 0.000000 0.000000 
16.932815 17.328296 -14.647481 1.305965 -5.517487 6.684353 -16.459759 1.689613 -23.995010 4.046072 14.732270 42.471124 2.842519 -1.848731 -23.096757 3.705900 -11.758300 -34.882400 21.416555 14.523688 -17.844053 -4.011619 -14.760195 43.215133 -0.452015 -16.281498 -36.968675 -2.717600 10.223300 -29.702800 1.332998 -0.601742 -4.371309 3.282719 -0.486416 6.493133 4.416245 -11.155095 23.491506 0.057400 -4.731300 15.199800 -85.989024 1.646583 43.016177 26.059757 -30.403389 -8.737035 -1.326755 -0.544329 -19.397586 -7.125000 0.000000 0.000000 79.265882 -1.435863 21.645591 -18.723479 24.824657 -5.559836 2.121880 0.410795 3.953685 7.125000 0.000000 0.000000 
16.937251 17.324677 -14.633473 1.064538 -5.396048 6.529305 -16.267482 1.817850 -23.732190 3.933139 14.626086 42.172219 2.487061 -0.624747 -23.041261 3.967700 -12.117300 -36.148400 21.599945 13.485998 -17.967068 -4.027039 -14.756508 43.214404 -0.418728 -15.720564 -36.172817 -2.747400 10.274400 -29.869900 1.328056 -0.630464 -4.355363 3.317977 -0.523028 6.544967 4.607385 -11.030699 23.907134 0.112100 -4.583600 15.506700 -85.817026 1.602470 42.397726 25.446584 -29.826356 -8.375326 -1.371369 -0.563084 -19.252446 -7.125000 0.000000 0.000000 79.645810 -1.813046 22.238196 -19.420434 25.523358 -5.798299 2.090185 0.433667 2.955849 7.125000 0.000000 0.000000 
16.944955 17.321059 -14.625185 0.821357 -5.166211 6.342295 -16.075902 1.931691 -23.440538 3.878928 14.559090 41.954284 2.508225 -0.560890 -23.301354 4.039600 -12.212900 -36.489400 21.752648 12.477116 -18.149266 -4.048333 -14.759286 43.222470 -0.257275 -15.381637 -35.020708 -2.744600 10.269700 -29.854700 1.314811 -0.685556 -4.340617 3.257781 -0.565115 6.510097 4.735262 -11.007090 24.177525 0.109400 -4.486400 15.641500 -85.511420 1.604837 41.918871 24.791966 -29.187230 -7.996513 -1.424167 -0.574676 -19.313358 -7.125000 0.000000 0.000000 80.128315 -2.141690 22.474399 -20.011907 26.131332 -6.028584 2.069235 0.451239 2.430616 7.125000 0.000000 0.000000 
16.958729 17.320708 -14.622851 0.579025 -4.959573 6.230841 -15.873634 2.000170 -23.244431 3.833871 14.503518 41.776152 2.481157 -0.472126 -23.275541 4.132900 -12.335200 -36.928200 21.882021 11.359464 -18.554546 -4.098645 -14.794299 43.337163 -0.001636 -15.288907 -33.663841 -2.823700 10.404000 -30.295100 1.306181 -0.793566 -4.323739 3.193713 -0.631642 6.500561 4.845238 -10.900004 24.291462 0.125500 -4.387100 15.649400 -85.242876 1.563742 41.273988 24.071490 -28.466720 -7.588992 -1.473957 -0.540774 -19.379548 -7.125000 0.000000 0.000000 80.512772 -2.382488 22.884747 -20.601854 26.728448 -6.247041 2.042916 0.467320 1.806648 7.125000 0.000000 0.000000 
16.976823 17.328763 -14.630205 0.410472 -4.780066 6.174889 -15.716722 1.926586 -23.129317 3.806169 14.475522 41.677958 2.431083 -0.379666 -23.104820 4.190800 -12.410000 -37.198300 21.889070 10.331590 -18.934773 -4.192464 -14.860234 43.591693 -0.319447 -13.478819 -32.941908 -2.623800 10.059500 -29.169700 1.316666 -0.986037 -4.305098 3.295653 -0.754382 6.568093 4.930457 -10.685867 24.350038 0.154700 -4.270000 15.691900 -85.103774 1.432754 40.403589 23.324195 -27.717347 -7.177975 -1.517263 -0.485303 -19.350478 -7.125000 0.000000 0.000000 80.655680 -2.537561 23.542654 -21.145823 27.235035 -6.418967 2.011221 0.473943 1.028900 7.125000 0.000000 0.000000 
16.996667 17.344871 -14.639893 0.325282 -4.606358 6.112525 -15.659419 1.781043 -22.969869 3.759771 14.433867 41.521156 2.421520 -0.312029 -23.178609 4.259500 -12.497900 -37.516800 21.748771 9.522409 -19.577300 -4.343351 -14.991378 44.062911 -0.331434 -12.537549 -31.758132 -2.512600 9.860800 -28.527100 1.335820 -1.212342 -4.272718 3.539525 -0.914211 6.749152 4.981196 -10.478893 24.388301 0.163600 -4.166100 15.767100 -85.012829 1.161462 39.525377 22.650108 -27.053018 -6.818349 -1.559735 -0.499665 -19.286686 -7.125000 0.000000 0.000000 80.644705 -2.568628 23.990230 -21.535900 27.576299 -6.541638 1.985630 0.480587 0.693016 7.125000 0.000000 0.000000 
17.020129 17.331097 -14.658220 0.201837 -4.590205 6.040742 -15.592635 1.634501 -22.854034 3.714092 14.397066 41.401091 2.302288 0.098637 -23.188116 4.449500 -12.735600 -38.386800 21.670123 8.577358 -20.150456 -4.572404 -15.182213 44.798720 -0.576359 -10.915773 -30.882120 -2.534100 9.899700 -28.652500 1.327506 -1.324629 -4.242640 3.599426 -1.000855 6.836349 4.977814 -10.401386 24.432470 0.114800 -4.104900 15.802400 -84.763667 0.951215 38.851120 22.019815 -26.405057 -6.488062 -1.607489 -0.542620 -19.149620 -7.125000 0.000000 0.000000 80.805000 -2.677919 24.270567 -21.845331 27.872748 -6.654578 1.968075 0.488442 0.473689 7.125000 0.000000 0.000000 
17.047444 17.346856 -14.673862 0.059032 -4.678033 5.987645 -15.525750 1.425786 -22.642116 3.646216 14.330088 41.202883 2.135206 0.584372 -23.023014 4.629900 -12.954500 -39.198400 21.373400 8.088958 -21.118774 -4.912168 -15.480058 45.890887 -0.691195 -9.160430 -29.048674 -2.295900 9.456900 -27.235400 1.286728 -1.294427 -4.230120 3.451220 -0.988062 6.714166 4.965396 -10.435927 24.426204 0.043400 -4.084100 15.672800 -84.306394 0.916415 38.584510 21.396264 -25.731829 -6.171523 -1.669811 -0.563262 -19.054800 -7.125000 0.000000 0.000000 81.151559 -3.218167 24.543021 -22.404178 28.441922 -6.894219 1.951110 0.498570 0.024337 7.125000 0.000000 0.000000 
17.083864 17.347906 -14.694873 -0.080260 -4.847117 5.970560 -15.518432 1.093502 -22.443208 3.599087 14.282533 41.052061 2.130276 0.694609 -23.222340 4.613200 -12.934500 -39.123900 21.074157 7.113430 -22.609087 -5.362633 -15.872814 47.396787 -0.255347 -9.072930 -26.130717 -2.627100 10.065400 -29.188800 1.244010 -1.218925 -4.215330 3.309853 -0.953542 6.614272 4.974026 -10.449173 24.369888 -0.005500 -4.061300 15.539600 -83.852171 0.864827 38.446983 20.911170 -25.207551 -5.910303 -1.614060 -1.177714 -19.023906 -7.125000 0.000000 0.000000 81.332819 -3.887723 24.867455 -23.219177 29.255873 -7.267921 1.928523 0.531053 -0.531731 7.125000 0.000000 0.000000 
17.124019 17.342070 -14.724989 -0.298957 -5.240378 6.005027 -15.481884 0.783176 -22.339296 3.570521 14.255191 40.971230 2.152282 0.864887 -23.723534 4.505200 -12.804000 -38.639000 20.712787 6.626188 -23.998305 -5.998285 -16.379154 49.440005 -0.591321 -6.289351 -23.807310 -2.489800 9.819400 -28.393800 1.222788 -1.191154 -4.191825 3.236451 -0.957654 6.657748 4.924240 -10.284032 24.351089 -0.075700 -3.970000 15.610000 -83.617050 0.726074 37.877198 20.560706 -24.827749 -5.744658 -1.590368 -1.374509 -18.877333 -7.125000 0.000000 0.000000 81.196252 -4.063355 25.324990 -23.672334 29.691500 -7.469961 1.911406 0.559738 -0.887809 7.125000 0.000000 0.000000 
17.164057 17.353976 -14.756856 -0.527464 -5.823740 6.131595 -15.483690 0.574679 -22.384217 3.535830 14.223910 40.919637 2.019267 1.606828 -24.316070 4.518700 -12.820300 -38.699600 20.121518 6.767231 -25.853848 -6.812821 -16.994541 51.995986 -1.055700 -2.472978 -20.674884 -1.940000 8.740000 -24.985500 1.212222 -1.177066 -4.180626 3.234763 -0.968441 6.666078 4.844751 -10.009506 24.344387 -0.141400 -3.849300 15.696500 -83.523565 0.605467 37.156260 20.212376 -24.415631 -5.552971 -1.637973 -1.159317 -18.604138 -7.125000 0.000000 0.000000 80.951196 -4.009075 25.778588 -23.755711 29.750148 -7.494742 1.909512 0.565799 -0.885333 7.125000 0.000000 0.000000 
